<svg data-v-fde0c5aa="" xmlns="http://www.w3.org/2000/svg" viewBox="0 0 300 300" class="font"><!----><defs data-v-fde0c5aa=""><!----></defs><rect data-v-fde0c5aa="" fill="transparent" x="0" y="0" width="300px" height="300px" class="logo-background-square"></rect><defs data-v-fde0c5aa=""><linearGradient data-v-fde0c5aa="" gradientTransform="rotate(25)" id="d0287223-4b98-46a9-880e-77177fbb8d79" x1="0%" y1="0%" x2="100%" y2="0%"><stop data-v-fde0c5aa="" offset="0%" stop-color="#4E1A70" stop-opacity="1"></stop><stop data-v-fde0c5aa="" offset="100%" stop-color="#2B4CF2" stop-opacity="1"></stop></linearGradient></defs><g data-v-fde0c5aa="" id="c657f764-8079-4369-bdf3-7c08b189d669" fill="url(#d0287223-4b98-46a9-880e-77177fbb8d79)" transform="matrix(6.476303114497861,0,0,6.476303114497861,32.22843595378837,100.1972302230054)"><path d="M7.31 7.39L7.31 3.35L8.67 3.35L8.67 13.05L7.31 13.05L7.31 8.57L2.56 8.57L2.56 13.05L1.20 13.05L1.20 3.35L2.56 3.35L2.56 7.39L7.31 7.39ZM13.45 12.11L13.45 12.11L13.45 12.11Q13.92 12.11 14.27 12.09L14.27 12.09L14.27 12.09Q14.63 12.07 14.87 12.01L14.87 12.01L14.87 9.84L14.87 9.84Q14.73 9.77 14.41 9.72L14.41 9.72L14.41 9.72Q14.10 9.67 13.65 9.67L13.65 9.67L13.65 9.67Q13.36 9.67 13.03 9.72L13.03 9.72L13.03 9.72Q12.70 9.76 12.43 9.89L12.43 9.89L12.43 9.89Q12.15 10.02 11.97 10.25L11.97 10.25L11.97 10.25Q11.79 10.49 11.79 10.86L11.79 10.86L11.79 10.86Q11.79 11.56 12.24 11.84L12.24 11.84L12.24 11.84Q12.68 12.11 13.45 12.11ZM13.34 5.59L13.34 5.59L13.34 5.59Q14.13 5.59 14.67 5.79L14.67 5.79L14.67 5.79Q15.20 5.99 15.53 6.36L15.53 6.36L15.53 6.36Q15.86 6.73 16.00 7.25L16.00 7.25L16.00 7.25Q16.14 7.76 16.14 8.37L16.14 8.37L16.14 12.92L16.14 12.92Q15.97 12.95 15.67 13.00L15.67 13.00L15.67 13.00Q15.37 13.05 14.99 13.09L14.99 13.09L14.99 13.09Q14.62 13.13 14.18 13.17L14.18 13.17L14.18 13.17Q13.73 13.20 13.30 13.20L13.30 13.20L13.30 13.20Q12.68 13.20 12.17 13.08L12.17 13.08L12.17 13.08Q11.65 12.95 11.27 12.68L11.27 12.68L11.27 12.68Q10.89 12.40 10.68 11.96L10.68 11.96L10.68 11.96Q10.47 11.51 10.47 10.88L10.47 10.88L10.47 10.88Q10.47 10.28 10.72 9.84L10.72 9.84L10.72 9.84Q10.96 9.41 11.38 9.14L11.38 9.14L11.38 9.14Q11.80 8.88 12.36 8.75L12.36 8.75L12.36 8.75Q12.92 8.62 13.54 8.62L13.54 8.62L13.54 8.62Q13.73 8.62 13.94 8.64L13.94 8.64L13.94 8.64Q14.15 8.67 14.34 8.70L14.34 8.70L14.34 8.70Q14.53 8.74 14.67 8.76L14.67 8.76L14.67 8.76Q14.81 8.79 14.87 8.81L14.87 8.81L14.87 8.44L14.87 8.44Q14.87 8.12 14.80 7.80L14.80 7.80L14.80 7.80Q14.73 7.49 14.55 7.25L14.55 7.25L14.55 7.25Q14.36 7 14.05 6.85L14.05 6.85L14.05 6.85Q13.73 6.71 13.23 6.71L13.23 6.71L13.23 6.71Q12.59 6.71 12.10 6.80L12.10 6.80L12.10 6.80Q11.62 6.89 11.38 6.99L11.38 6.99L11.23 5.91L11.23 5.91Q11.48 5.80 12.07 5.69L12.07 5.69L12.07 5.69Q12.66 5.59 13.34 5.59ZM25.38 13.05L24.25 13.05L24.25 13.05Q23.86 12.04 23.41 10.75L23.41 10.75L23.41 10.75Q22.97 9.45 22.61 8.05L22.61 8.05L22.61 8.05Q22.25 9.45 21.81 10.75L21.81 10.75L21.81 10.75Q21.38 12.04 20.99 13.05L20.99 13.05L19.85 13.05L19.85 13.05Q19.21 11.61 18.59 9.76L18.59 9.76L18.59 9.76Q17.98 7.91 17.43 5.77L17.43 5.77L18.83 5.77L18.83 5.77Q18.97 6.43 19.17 7.20L19.17 7.20L19.17 7.20Q19.36 7.97 19.58 8.74L19.58 8.74L19.58 8.74Q19.80 9.51 20.03 10.22L20.03 10.22L20.03 10.22Q20.27 10.93 20.48 11.47L20.48 11.47L20.48 11.47Q20.72 10.81 20.95 10.07L20.95 10.07L20.95 10.07Q21.18 9.34 21.39 8.59L21.39 8.59L21.39 8.59Q21.60 7.84 21.79 7.12L21.79 7.12L21.79 7.12Q21.98 6.40 22.12 5.77L22.12 5.77L23.20 5.77L23.20 5.77Q23.32 6.40 23.51 7.12L23.51 7.12L23.51 7.12Q23.69 7.84 23.90 8.59L23.90 8.59L23.90 8.59Q24.11 9.34 24.34 10.07L24.34 10.07L24.34 10.07Q24.57 10.81 24.81 11.47L24.81 11.47L24.81 11.47Q25.02 10.93 25.25 10.22L25.25 10.22L25.25 10.22Q25.48 9.51 25.70 8.74L25.70 8.74L25.70 8.74Q25.93 7.97 26.12 7.20L26.12 7.20L26.12 7.20Q26.32 6.43 26.46 5.77L26.46 5.77L27.80 5.77L27.80 5.77Q27.26 7.91 26.64 9.76L26.64 9.76L26.64 9.76Q26.03 11.61 25.38 13.05L25.38 13.05ZM31.81 9.04L31.81 9.04L31.81 9.04Q32.23 9.37 32.70 9.84L32.70 9.84L32.70 9.84Q33.17 10.32 33.62 10.87L33.62 10.87L33.62 10.87Q34.08 11.42 34.48 11.99L34.48 11.99L34.48 11.99Q34.89 12.56 35.17 13.05L35.17 13.05L33.64 13.05L33.64 13.05Q33.35 12.56 32.96 12.05L32.96 12.05L32.96 12.05Q32.58 11.54 32.16 11.07L32.16 11.07L32.16 11.07Q31.74 10.60 31.30 10.21L31.30 10.21L31.30 10.21Q30.87 9.81 30.48 9.55L30.48 9.55L30.48 13.05L29.18 13.05L29.18 2.41L30.48 2.18L30.48 8.82L30.48 8.82Q30.81 8.48 31.22 8.08L31.22 8.08L31.22 8.08Q31.63 7.67 32.02 7.25L32.02 7.25L32.02 7.25Q32.41 6.83 32.76 6.45L32.76 6.45L32.76 6.45Q33.11 6.06 33.36 5.77L33.36 5.77L34.89 5.77L34.89 5.77Q34.57 6.12 34.19 6.54L34.19 6.54L34.19 6.54Q33.81 6.96 33.40 7.38L33.40 7.38L33.40 7.38Q33.00 7.81 32.59 8.24L32.59 8.24L32.59 8.24Q32.17 8.67 31.81 9.04Z"></path></g><!----><!----></svg>